<mxfile host="app.diagrams.net" modified="2023-08-29T16:19:34.212Z" agent="Mozilla/5.0 (Windows NT 10.0; Win64; x64) AppleWebKit/537.36 (KHTML, like Gecko) Chrome/116.0.0.0 Safari/537.36" etag="cN46fO9WDMnG7hkKNCtH" version="21.6.9" type="device">
  <diagram name="PÃ¡gina-1" id="pHZy5_c9Cu2xPbC_FlRm">
    <mxGraphModel dx="1434" dy="758" grid="1" gridSize="10" guides="1" tooltips="1" connect="1" arrows="1" fold="1" page="1" pageScale="1" pageWidth="827" pageHeight="1169" math="0" shadow="0">
      <root>
        <mxCell id="0" />
        <mxCell id="1" parent="0" />
        <mxCell id="_SvU36llIl2G_m_qo7sy-2" value="dep Android application deployment" style="shape=umlFrame;whiteSpace=wrap;html=1;pointerEvents=0;recursiveResize=0;container=1;collapsible=0;width=210;height=15;" vertex="1" parent="1">
          <mxGeometry x="10" y="98" width="810" height="572" as="geometry" />
        </mxCell>
        <mxCell id="_SvU36llIl2G_m_qo7sy-6" value="" style="rounded=0;whiteSpace=wrap;html=1;" vertex="1" parent="_SvU36llIl2G_m_qo7sy-2">
          <mxGeometry x="30" y="62" width="240" height="478" as="geometry" />
        </mxCell>
        <mxCell id="_SvU36llIl2G_m_qo7sy-7" value="&amp;lt;&amp;lt;Compiled classes&amp;gt;&amp;gt;" style="rounded=0;whiteSpace=wrap;html=1;" vertex="1" parent="_SvU36llIl2G_m_qo7sy-2">
          <mxGeometry x="60" y="152" width="180" height="60" as="geometry" />
        </mxCell>
        <mxCell id="_SvU36llIl2G_m_qo7sy-11" value="&amp;lt;&amp;lt;Compiled resources&amp;gt;&amp;gt;" style="rounded=0;whiteSpace=wrap;html=1;" vertex="1" parent="_SvU36llIl2G_m_qo7sy-2">
          <mxGeometry x="60" y="252" width="180" height="60" as="geometry" />
        </mxCell>
        <mxCell id="_SvU36llIl2G_m_qo7sy-12" value="&amp;lt;&amp;lt;Uncompiled resources&amp;gt;&amp;gt;" style="rounded=0;whiteSpace=wrap;html=1;" vertex="1" parent="_SvU36llIl2G_m_qo7sy-2">
          <mxGeometry x="60" y="352" width="180" height="60" as="geometry" />
        </mxCell>
        <mxCell id="_SvU36llIl2G_m_qo7sy-13" value="&amp;lt;&amp;lt;Deployment Specification&amp;gt;&amp;gt;" style="rounded=0;whiteSpace=wrap;html=1;" vertex="1" parent="_SvU36llIl2G_m_qo7sy-2">
          <mxGeometry x="60" y="456.5" width="180" height="60" as="geometry" />
        </mxCell>
        <mxCell id="_SvU36llIl2G_m_qo7sy-14" value="&amp;lt;&amp;lt;Android Application&amp;gt;&amp;gt; Uber App" style="text;html=1;strokeColor=none;fillColor=none;align=center;verticalAlign=middle;whiteSpace=wrap;rounded=0;" vertex="1" parent="_SvU36llIl2G_m_qo7sy-2">
          <mxGeometry x="80" y="72" width="140" height="30" as="geometry" />
        </mxCell>
        <mxCell id="_SvU36llIl2G_m_qo7sy-15" value="&amp;lt;&amp;lt;device&amp;gt;&amp;gt;&lt;br&gt;Smarthphone" style="shape=cube;whiteSpace=wrap;html=1;boundedLbl=1;backgroundOutline=1;darkOpacity=0.05;darkOpacity2=0.1;size=10;" vertex="1" parent="_SvU36llIl2G_m_qo7sy-2">
          <mxGeometry x="430" y="82" width="210" height="60" as="geometry" />
        </mxCell>
        <mxCell id="_SvU36llIl2G_m_qo7sy-16" value="&amp;lt;&amp;lt;Execution Enviroment&amp;gt;&amp;gt;&lt;br&gt;Android" style="shape=cube;whiteSpace=wrap;html=1;boundedLbl=1;backgroundOutline=1;darkOpacity=0.05;darkOpacity2=0.1;size=10;" vertex="1" parent="_SvU36llIl2G_m_qo7sy-2">
          <mxGeometry x="430" y="222" width="210" height="60" as="geometry" />
        </mxCell>
        <mxCell id="_SvU36llIl2G_m_qo7sy-19" value="" style="endArrow=block;html=1;rounded=0;dashed=1;dashPattern=8 8;endFill=1;exitX=1;exitY=0.418;exitDx=0;exitDy=0;exitPerimeter=0;" edge="1" parent="_SvU36llIl2G_m_qo7sy-2" source="_SvU36llIl2G_m_qo7sy-6">
          <mxGeometry width="50" height="50" relative="1" as="geometry">
            <mxPoint x="320" y="262" as="sourcePoint" />
            <mxPoint x="430" y="262" as="targetPoint" />
          </mxGeometry>
        </mxCell>
        <mxCell id="_SvU36llIl2G_m_qo7sy-20" value="" style="endArrow=none;html=1;rounded=0;" edge="1" parent="_SvU36llIl2G_m_qo7sy-2">
          <mxGeometry width="50" height="50" relative="1" as="geometry">
            <mxPoint x="540" y="182" as="sourcePoint" />
            <mxPoint x="540" y="222" as="targetPoint" />
          </mxGeometry>
        </mxCell>
        <mxCell id="_SvU36llIl2G_m_qo7sy-21" value="" style="rhombus;whiteSpace=wrap;html=1;fillColor=#000000;" vertex="1" parent="_SvU36llIl2G_m_qo7sy-2">
          <mxGeometry x="520" y="142" width="40" height="40" as="geometry" />
        </mxCell>
        <mxCell id="_SvU36llIl2G_m_qo7sy-22" value="&amp;lt;&amp;lt;deploy&amp;gt;&amp;gt;" style="text;html=1;strokeColor=none;fillColor=none;align=center;verticalAlign=middle;whiteSpace=wrap;rounded=0;" vertex="1" parent="_SvU36llIl2G_m_qo7sy-2">
          <mxGeometry x="320" y="232" width="60" height="30" as="geometry" />
        </mxCell>
        <mxCell id="_SvU36llIl2G_m_qo7sy-25" value="API" style="ellipse;shape=cloud;whiteSpace=wrap;html=1;" vertex="1" parent="_SvU36llIl2G_m_qo7sy-2">
          <mxGeometry x="670" y="312" width="120" height="80" as="geometry" />
        </mxCell>
        <mxCell id="_SvU36llIl2G_m_qo7sy-23" value="" style="endArrow=none;html=1;rounded=0;" edge="1" parent="_SvU36llIl2G_m_qo7sy-2">
          <mxGeometry width="50" height="50" relative="1" as="geometry">
            <mxPoint x="750" y="102" as="sourcePoint" />
            <mxPoint x="750" y="322" as="targetPoint" />
          </mxGeometry>
        </mxCell>
        <mxCell id="_SvU36llIl2G_m_qo7sy-26" value="" style="endArrow=block;html=1;rounded=0;endFill=1;" edge="1" parent="_SvU36llIl2G_m_qo7sy-2">
          <mxGeometry width="50" height="50" relative="1" as="geometry">
            <mxPoint x="750" y="102" as="sourcePoint" />
            <mxPoint x="640" y="102" as="targetPoint" />
          </mxGeometry>
        </mxCell>
      </root>
    </mxGraphModel>
  </diagram>
</mxfile>
